<svg width="24" height="24" viewBox="0 0 24 24" fill="none" xmlns="http://www.w3.org/2000/svg">
<g clip-path="url(#clip0_6_2)">
<path d="M18.856 14.624C19.9665 12.5014 20.28 10.0512 19.7397 7.71737C19.1993 5.38353 17.8409 3.32045 15.9104 1.90192C13.98 0.4834 11.6053 -0.196723 9.21661 -0.0152143C6.82793 0.166294 4.58327 1.19743 2.88934 2.89135C1.19541 4.58528 0.16428 6.82994 -0.0172284 9.21863C-0.198737 11.6073 0.481386 13.982 1.89991 15.9124C3.31843 17.8429 5.38152 19.2013 7.71535 19.7417C10.0492 20.282 12.4994 19.9686 14.622 18.858L18.876 23.113C19.4369 23.6751 20.1982 23.9914 20.9923 23.9922C21.7864 23.9931 22.5484 23.6784 23.1105 23.1175C23.6726 22.5566 23.9889 21.7953 23.9897 21.0012C23.9906 20.2071 23.6759 19.4451 23.115 18.883L18.856 14.624ZM1.99999 10C1.99999 8.41776 2.46918 6.87104 3.34823 5.55544C4.22729 4.23985 5.47671 3.21447 6.93852 2.60897C8.40033 2.00347 10.0089 1.84504 11.5607 2.15372C13.1126 2.4624 14.538 3.22433 15.6568 4.34315C16.7757 5.46197 17.5376 6.88744 17.8463 8.43928C18.155 9.99113 17.9965 11.5997 17.391 13.0615C16.7855 14.5233 15.7601 15.7727 14.4446 16.6518C13.129 17.5308 11.5822 18 9.99999 18C7.87899 17.9976 5.84554 17.154 4.34577 15.6542C2.84599 14.1545 2.00237 12.121 1.99999 10ZM21.7 21.708C21.5131 21.8912 21.2617 21.9939 21 21.9939C20.7382 21.9939 20.4869 21.8912 20.3 21.708L16.333 17.74C16.8447 17.3185 17.3136 16.8475 17.733 16.334L21.705 20.3C21.7991 20.3917 21.8738 20.5014 21.9244 20.6226C21.9751 20.7438 22.0008 20.874 22 21.0054C21.9992 21.1368 21.9718 21.2667 21.9196 21.3872C21.8673 21.5078 21.7913 21.6165 21.696 21.707L21.7 21.708Z" fill="#0F0E13"/>
<path d="M10 4C8.40919 4.00159 6.88399 4.63424 5.75911 5.75911C4.63424 6.88399 4.00159 8.40919 4 10C4 10.2652 4.10536 10.5196 4.29289 10.7071C4.48043 10.8946 4.73478 11 5 11C5.26522 11 5.51957 10.8946 5.70711 10.7071C5.89464 10.5196 6 10.2652 6 10C6 8.93913 6.42143 7.92172 7.17157 7.17157C7.92172 6.42143 8.93913 6 10 6C10.2652 6 10.5196 5.89464 10.7071 5.70711C10.8946 5.51957 11 5.26522 11 5C11 4.73478 10.8946 4.48043 10.7071 4.29289C10.5196 4.10536 10.2652 4 10 4Z" fill="#0F0E13"/>
</g>
<defs>
<clipPath id="clip0_6_2">
<rect width="24" height="24" fill="white"/>
</clipPath>
</defs>
</svg>
